<mxfile host="app.diagrams.net" modified="2024-07-11T13:27:44.829Z" agent="Mozilla/5.0 (Windows NT 10.0; Win64; x64) AppleWebKit/537.36 (KHTML, like Gecko) Chrome/126.0.0.0 Safari/537.36" etag="E5YYS1vyB4PDCICDpfYq" version="23.1.0" type="device">
  <diagram name="Page-1" id="2cc2dc42-3aac-f2a9-1cec-7a8b7cbee084">
    <mxGraphModel dx="2333" dy="1236" grid="1" gridSize="10" guides="1" tooltips="1" connect="1" arrows="1" fold="1" page="1" pageScale="1" pageWidth="1100" pageHeight="850" background="none" math="0" shadow="0">
      <root>
        <mxCell id="0" />
        <mxCell id="1" parent="0" />
        <mxCell id="7026571954dc6520-1" value="" style="strokeWidth=1;shadow=0;dashed=0;align=center;html=1;shape=mxgraph.mockup.containers.browserWindow;rSize=0;strokeColor=#666666;mainText=,;recursiveResize=0;rounded=0;labelBackgroundColor=none;fontFamily=Verdana;fontSize=12" parent="1" vertex="1">
          <mxGeometry x="50" y="80" width="1060" height="850" as="geometry" />
        </mxCell>
        <mxCell id="7026571954dc6520-2" value="Page 1" style="strokeWidth=1;shadow=0;dashed=0;align=center;html=1;shape=mxgraph.mockup.containers.anchor;fontSize=17;fontColor=#666666;align=left;" parent="7026571954dc6520-1" vertex="1">
          <mxGeometry x="60" y="12" width="110" height="26" as="geometry" />
        </mxCell>
        <mxCell id="7026571954dc6520-3" value="https://www.default.com" style="strokeWidth=1;shadow=0;dashed=0;align=center;html=1;shape=mxgraph.mockup.containers.anchor;rSize=0;fontSize=17;fontColor=#666666;align=left;" parent="7026571954dc6520-1" vertex="1">
          <mxGeometry x="130" y="60" width="250" height="26" as="geometry" />
        </mxCell>
        <mxCell id="7026571954dc6520-4" value="LOGO" style="text;html=1;points=[];align=left;verticalAlign=top;spacingTop=-4;fontSize=30;fontFamily=Verdana" parent="7026571954dc6520-1" vertex="1">
          <mxGeometry x="30" y="140" width="340" height="50" as="geometry" />
        </mxCell>
        <mxCell id="7026571954dc6520-15" value="" style="verticalLabelPosition=bottom;shadow=0;dashed=0;align=center;html=1;verticalAlign=top;strokeWidth=1;shape=mxgraph.mockup.markup.line;strokeColor=#999999;rounded=0;labelBackgroundColor=none;fillColor=#ffffff;fontFamily=Verdana;fontSize=12;fontColor=#000000;" parent="7026571954dc6520-1" vertex="1">
          <mxGeometry x="10" y="215" width="1050" height="20" as="geometry" />
        </mxCell>
        <mxCell id="7026571954dc6520-16" value="Carrusel de Fotos con Enlaces" style="text;html=1;points=[];align=left;verticalAlign=top;spacingTop=-4;fontSize=15;fontFamily=Verdana" parent="7026571954dc6520-1" vertex="1">
          <mxGeometry x="10" y="240" width="170" height="30" as="geometry" />
        </mxCell>
        <mxCell id="7026571954dc6520-21" value="" style="verticalLabelPosition=bottom;shadow=0;dashed=0;align=center;html=1;verticalAlign=top;strokeWidth=1;shape=mxgraph.mockup.markup.line;strokeColor=#999999;rounded=0;labelBackgroundColor=none;fillColor=#ffffff;fontFamily=Verdana;fontSize=12;fontColor=#000000;" parent="7026571954dc6520-1" vertex="1">
          <mxGeometry x="10" y="500" width="1050" height="20" as="geometry" />
        </mxCell>
        <mxCell id="7026571954dc6520-31" value="Descripcion" style="text;html=1;points=[];align=left;verticalAlign=top;spacingTop=-4;fontSize=15;fontFamily=Verdana" parent="7026571954dc6520-1" vertex="1">
          <mxGeometry x="380" y="510" width="170" height="30" as="geometry" />
        </mxCell>
        <mxCell id="4roU1Jn_dtgivTA0pJqq-1" value="" style="strokeWidth=1;shadow=0;dashed=0;align=center;html=1;shape=mxgraph.mockup.forms.rrect;rSize=0;strokeColor=#999999;" vertex="1" parent="7026571954dc6520-1">
          <mxGeometry x="330" y="150" width="620" height="30" as="geometry" />
        </mxCell>
        <mxCell id="4roU1Jn_dtgivTA0pJqq-2" value="Servicios" style="strokeColor=inherit;fillColor=inherit;gradientColor=inherit;strokeWidth=1;shadow=0;dashed=0;align=center;html=1;shape=mxgraph.mockup.forms.rrect;rSize=0;fontSize=17;fontColor=#666666;whiteSpace=wrap;" vertex="1" parent="4roU1Jn_dtgivTA0pJqq-1">
          <mxGeometry width="103.33333333333336" height="30" as="geometry" />
        </mxCell>
        <mxCell id="4roU1Jn_dtgivTA0pJqq-3" value="Nosotros" style="strokeColor=inherit;fillColor=inherit;gradientColor=inherit;strokeWidth=1;shadow=0;dashed=0;align=center;html=1;shape=mxgraph.mockup.forms.rrect;rSize=0;fontSize=17;fontColor=#666666;whiteSpace=wrap;" vertex="1" parent="4roU1Jn_dtgivTA0pJqq-1">
          <mxGeometry x="103.33333333333336" width="103.33333333333336" height="30" as="geometry" />
        </mxCell>
        <mxCell id="4roU1Jn_dtgivTA0pJqq-4" value="Contacto" style="strokeColor=inherit;fillColor=inherit;gradientColor=inherit;strokeWidth=1;shadow=0;dashed=0;align=center;html=1;shape=mxgraph.mockup.forms.rrect;rSize=0;fontSize=17;fontColor=#666666;whiteSpace=wrap;" vertex="1" parent="4roU1Jn_dtgivTA0pJqq-1">
          <mxGeometry x="206.6666666666667" width="103.33333333333336" height="30" as="geometry" />
        </mxCell>
        <mxCell id="4roU1Jn_dtgivTA0pJqq-5" value="Inicio" style="strokeColor=inherit;fillColor=inherit;gradientColor=inherit;strokeWidth=1;shadow=0;dashed=0;align=center;html=1;shape=mxgraph.mockup.forms.rrect;rSize=0;fontSize=17;fontColor=#666666;whiteSpace=wrap;" vertex="1" parent="4roU1Jn_dtgivTA0pJqq-1">
          <mxGeometry x="310.00000000000006" width="103.33333333333336" height="30" as="geometry" />
        </mxCell>
        <mxCell id="7026571954dc6520-36" value="Lorem ipsum dolor sit amet, consectetur adipisicing elit, sed do eiusmod tempor incididunt ut labore et dolore magna aliqua. Ut enim ad minim veniam, quis nostrud exercitation ullamco laboris nisi ut aliquip ex ea commodo consequat. Duis aute irure dolor in reprehenderit in voluptate velit esse cillum dolore eu fugiat nulla pariatur. Excepteur sint occaecat cupidatat non proident, sunt in culpa qui officia deserunt mollit anim id est laborum.&lt;br&gt;Sed ut perspiciatis unde omnis iste natus error sit voluptatem accusantium doloremque laudantium, totam rem aperiam, eaque ipsa quae ab illo inventore veritatis et quasi architecto beatae vitae dicta sunt explicabo.&amp;nbsp;" style="text;spacingTop=-5;whiteSpace=wrap;html=1;align=left;fontSize=12;fontFamily=Helvetica;fillColor=none;strokeColor=none;rounded=0;shadow=1;labelBackgroundColor=none;" parent="7026571954dc6520-1" vertex="1">
          <mxGeometry x="20" y="540" width="1010" height="80" as="geometry" />
        </mxCell>
        <mxCell id="4roU1Jn_dtgivTA0pJqq-14" value="Fotos y enlaces" style="html=1;shadow=0;dashed=0;strokeColor=none;strokeWidth=1;fillColor=#777777;fontColor=#555555;whiteSpace=wrap;align=center;verticalAlign=middle;fontStyle=0;fontSize=40;" vertex="1" parent="7026571954dc6520-1">
          <mxGeometry x="135" y="280" width="710" height="210" as="geometry" />
        </mxCell>
        <mxCell id="4roU1Jn_dtgivTA0pJqq-15" value="" style="html=1;verticalLabelPosition=bottom;labelBackgroundColor=#ffffff;verticalAlign=top;shadow=0;dashed=0;strokeWidth=4;shape=mxgraph.ios7.misc.more;strokeColor=#a0a0a0;" vertex="1" parent="4roU1Jn_dtgivTA0pJqq-14">
          <mxGeometry x="1" y="0.5" width="7" height="14" relative="1" as="geometry">
            <mxPoint x="-50" y="-7" as="offset" />
          </mxGeometry>
        </mxCell>
        <mxCell id="4roU1Jn_dtgivTA0pJqq-16" value="" style="flipH=1;html=1;verticalLabelPosition=bottom;labelBackgroundColor=#ffffff;verticalAlign=top;shadow=0;dashed=0;strokeWidth=4;shape=mxgraph.ios7.misc.more;strokeColor=#a0a0a0;" vertex="1" parent="4roU1Jn_dtgivTA0pJqq-14">
          <mxGeometry y="0.5" width="7" height="14" relative="1" as="geometry">
            <mxPoint x="43" y="-7" as="offset" />
          </mxGeometry>
        </mxCell>
        <mxCell id="4roU1Jn_dtgivTA0pJqq-17" value="" style="html=1;shadow=0;strokeColor=none;fillColor=#ffffff;" vertex="1" parent="4roU1Jn_dtgivTA0pJqq-14">
          <mxGeometry x="0.5" y="1" width="30" height="4" relative="1" as="geometry">
            <mxPoint x="-50" y="-20" as="offset" />
          </mxGeometry>
        </mxCell>
        <mxCell id="4roU1Jn_dtgivTA0pJqq-18" value="" style="html=1;shadow=0;strokeColor=none;fillColor=#BBBBBB;" vertex="1" parent="4roU1Jn_dtgivTA0pJqq-14">
          <mxGeometry x="0.5" y="1" width="30" height="4" relative="1" as="geometry">
            <mxPoint x="-15" y="-20" as="offset" />
          </mxGeometry>
        </mxCell>
        <mxCell id="4roU1Jn_dtgivTA0pJqq-19" value="" style="html=1;shadow=0;strokeColor=none;fillColor=#BBBBBB;" vertex="1" parent="4roU1Jn_dtgivTA0pJqq-14">
          <mxGeometry x="0.5" y="1" width="30" height="4" relative="1" as="geometry">
            <mxPoint x="20" y="-20" as="offset" />
          </mxGeometry>
        </mxCell>
        <mxCell id="4roU1Jn_dtgivTA0pJqq-21" value="&lt;font style=&quot;font-size: 26px;&quot;&gt;Footer&lt;/font&gt;" style="text;html=1;strokeColor=none;fillColor=none;align=center;verticalAlign=middle;whiteSpace=wrap;rounded=0;" vertex="1" parent="7026571954dc6520-1">
          <mxGeometry x="20" y="640" width="1040" height="30" as="geometry" />
        </mxCell>
        <mxCell id="4roU1Jn_dtgivTA0pJqq-22" value="" style="rounded=1;whiteSpace=wrap;html=1;strokeWidth=2;fillWeight=4;hachureGap=8;hachureAngle=45;fillColor=#1ba1e2;sketch=1;" vertex="1" parent="7026571954dc6520-1">
          <mxGeometry x="15" y="690" width="1025" height="150" as="geometry" />
        </mxCell>
        <mxCell id="4roU1Jn_dtgivTA0pJqq-28" value="" style="verticalLabelPosition=bottom;verticalAlign=top;html=1;shadow=0;dashed=0;strokeWidth=1;shape=mxgraph.android.phone2;strokeColor=#c0c0c0;" vertex="1" parent="1">
          <mxGeometry x="1350" y="70" width="720" height="920" as="geometry" />
        </mxCell>
        <mxCell id="4roU1Jn_dtgivTA0pJqq-29" value="LOGO" style="rounded=0;whiteSpace=wrap;html=1;" vertex="1" parent="1">
          <mxGeometry x="1620" y="160" width="140" height="110" as="geometry" />
        </mxCell>
        <mxCell id="4roU1Jn_dtgivTA0pJqq-31" value="Inicio&lt;br style=&quot;font-size: 27px;&quot;&gt;Contacto&lt;br&gt;Nosotros&lt;br&gt;Servicios&lt;br&gt;" style="text;html=1;align=center;verticalAlign=middle;resizable=0;points=[];autosize=1;strokeColor=none;fillColor=none;fontSize=27;" vertex="1" parent="1">
          <mxGeometry x="1630" y="285" width="130" height="140" as="geometry" />
        </mxCell>
        <mxCell id="4roU1Jn_dtgivTA0pJqq-54" value="&lt;span style=&quot;color: rgb(85, 85, 85); font-family: Helvetica; font-size: 40px; font-style: normal; font-variant-ligatures: normal; font-variant-caps: normal; font-weight: 400; letter-spacing: normal; orphans: 2; text-align: center; text-indent: 0px; text-transform: none; widows: 2; word-spacing: 0px; -webkit-text-stroke-width: 0px; background-color: rgb(251, 251, 251); text-decoration-thickness: initial; text-decoration-style: initial; text-decoration-color: initial; float: none; display: inline !important;&quot;&gt;Fotos y enlaces&lt;/span&gt;" style="text;whiteSpace=wrap;html=1;" vertex="1" parent="1">
          <mxGeometry x="1550" y="460" width="310" height="70" as="geometry" />
        </mxCell>
        <mxCell id="4roU1Jn_dtgivTA0pJqq-55" value="Descripción&amp;nbsp;" style="text;html=1;align=center;verticalAlign=middle;resizable=0;points=[];autosize=1;strokeColor=none;fillColor=none;fontSize=30;" vertex="1" parent="1">
          <mxGeometry x="1595" y="580" width="190" height="50" as="geometry" />
        </mxCell>
        <mxCell id="4roU1Jn_dtgivTA0pJqq-56" value="" style="rounded=1;whiteSpace=wrap;html=1;" vertex="1" parent="1">
          <mxGeometry x="1420" y="650" width="620" height="60" as="geometry" />
        </mxCell>
        <mxCell id="4roU1Jn_dtgivTA0pJqq-57" value="&lt;font style=&quot;font-size: 30px;&quot;&gt;footer&lt;/font&gt;" style="text;html=1;align=center;verticalAlign=middle;resizable=0;points=[];autosize=1;strokeColor=none;fillColor=none;" vertex="1" parent="1">
          <mxGeometry x="1645" y="708" width="100" height="50" as="geometry" />
        </mxCell>
        <mxCell id="4roU1Jn_dtgivTA0pJqq-58" value="" style="rounded=1;whiteSpace=wrap;html=1;" vertex="1" parent="1">
          <mxGeometry x="1410" y="758" width="620" height="72" as="geometry" />
        </mxCell>
        <mxCell id="4roU1Jn_dtgivTA0pJqq-59" value="" style="whiteSpace=wrap;html=1;aspect=fixed;" vertex="1" parent="1">
          <mxGeometry x="1470" y="763" width="62" height="62" as="geometry" />
        </mxCell>
        <mxCell id="4roU1Jn_dtgivTA0pJqq-61" value="" style="whiteSpace=wrap;html=1;aspect=fixed;" vertex="1" parent="1">
          <mxGeometry x="1610" y="763" width="62" height="62" as="geometry" />
        </mxCell>
        <mxCell id="4roU1Jn_dtgivTA0pJqq-62" value="" style="whiteSpace=wrap;html=1;aspect=fixed;" vertex="1" parent="1">
          <mxGeometry x="1750" y="763" width="62" height="62" as="geometry" />
        </mxCell>
        <mxCell id="4roU1Jn_dtgivTA0pJqq-63" value="" style="whiteSpace=wrap;html=1;aspect=fixed;" vertex="1" parent="1">
          <mxGeometry x="1910" y="763" width="62" height="62" as="geometry" />
        </mxCell>
        <mxCell id="4roU1Jn_dtgivTA0pJqq-64" value="&lt;font style=&quot;font-size: 50px;&quot;&gt;Index&lt;/font&gt;" style="text;html=1;align=center;verticalAlign=middle;resizable=0;points=[];autosize=1;strokeColor=none;fillColor=none;" vertex="1" parent="1">
          <mxGeometry x="440" width="150" height="70" as="geometry" />
        </mxCell>
        <mxCell id="4roU1Jn_dtgivTA0pJqq-65" value="&lt;font style=&quot;font-size: 50px;&quot;&gt;Index&lt;/font&gt;" style="text;html=1;align=center;verticalAlign=middle;resizable=0;points=[];autosize=1;strokeColor=none;fillColor=none;" vertex="1" parent="1">
          <mxGeometry x="1645" width="150" height="70" as="geometry" />
        </mxCell>
        <mxCell id="4roU1Jn_dtgivTA0pJqq-66" value="" style="strokeWidth=1;shadow=0;dashed=0;align=center;html=1;shape=mxgraph.mockup.containers.browserWindow;rSize=0;strokeColor=#666666;mainText=,;recursiveResize=0;rounded=0;labelBackgroundColor=none;fontFamily=Verdana;fontSize=12" vertex="1" parent="1">
          <mxGeometry x="30" y="1140" width="1060" height="850" as="geometry" />
        </mxCell>
        <mxCell id="4roU1Jn_dtgivTA0pJqq-67" value="Page 1" style="strokeWidth=1;shadow=0;dashed=0;align=center;html=1;shape=mxgraph.mockup.containers.anchor;fontSize=17;fontColor=#666666;align=left;" vertex="1" parent="4roU1Jn_dtgivTA0pJqq-66">
          <mxGeometry x="60" y="12" width="110" height="26" as="geometry" />
        </mxCell>
        <mxCell id="4roU1Jn_dtgivTA0pJqq-68" value="https://www.default.com" style="strokeWidth=1;shadow=0;dashed=0;align=center;html=1;shape=mxgraph.mockup.containers.anchor;rSize=0;fontSize=17;fontColor=#666666;align=left;" vertex="1" parent="4roU1Jn_dtgivTA0pJqq-66">
          <mxGeometry x="130" y="60" width="250" height="26" as="geometry" />
        </mxCell>
        <mxCell id="4roU1Jn_dtgivTA0pJqq-69" value="LOGO" style="text;html=1;points=[];align=left;verticalAlign=top;spacingTop=-4;fontSize=30;fontFamily=Verdana" vertex="1" parent="4roU1Jn_dtgivTA0pJqq-66">
          <mxGeometry x="30" y="140" width="340" height="50" as="geometry" />
        </mxCell>
        <mxCell id="4roU1Jn_dtgivTA0pJqq-70" value="" style="verticalLabelPosition=bottom;shadow=0;dashed=0;align=center;html=1;verticalAlign=top;strokeWidth=1;shape=mxgraph.mockup.markup.line;strokeColor=#999999;rounded=0;labelBackgroundColor=none;fillColor=#ffffff;fontFamily=Verdana;fontSize=12;fontColor=#000000;" vertex="1" parent="4roU1Jn_dtgivTA0pJqq-66">
          <mxGeometry x="10" y="215" width="1050" height="20" as="geometry" />
        </mxCell>
        <mxCell id="4roU1Jn_dtgivTA0pJqq-71" value="&amp;nbsp; &amp;nbsp; &amp;nbsp; &amp;nbsp; &amp;nbsp; &amp;nbsp; &amp;nbsp; &amp;nbsp; &amp;nbsp; &amp;nbsp; &amp;nbsp; &amp;nbsp; &amp;nbsp; &amp;nbsp; &amp;nbsp; &amp;nbsp; &amp;nbsp; &amp;nbsp; Nosotros" style="text;html=1;points=[];align=left;verticalAlign=top;spacingTop=-4;fontSize=15;fontFamily=Verdana" vertex="1" parent="4roU1Jn_dtgivTA0pJqq-66">
          <mxGeometry x="240" y="240" width="450" height="30" as="geometry" />
        </mxCell>
        <mxCell id="4roU1Jn_dtgivTA0pJqq-72" value="" style="verticalLabelPosition=bottom;shadow=0;dashed=0;align=center;html=1;verticalAlign=top;strokeWidth=1;shape=mxgraph.mockup.markup.line;strokeColor=#999999;rounded=0;labelBackgroundColor=none;fillColor=#ffffff;fontFamily=Verdana;fontSize=12;fontColor=#000000;" vertex="1" parent="4roU1Jn_dtgivTA0pJqq-66">
          <mxGeometry x="10" y="500" width="1050" height="130" as="geometry" />
        </mxCell>
        <mxCell id="4roU1Jn_dtgivTA0pJqq-74" value="" style="strokeWidth=1;shadow=0;dashed=0;align=center;html=1;shape=mxgraph.mockup.forms.rrect;rSize=0;strokeColor=#999999;" vertex="1" parent="4roU1Jn_dtgivTA0pJqq-66">
          <mxGeometry x="330" y="150" width="620" height="30" as="geometry" />
        </mxCell>
        <mxCell id="4roU1Jn_dtgivTA0pJqq-75" value="Servicios" style="strokeColor=inherit;fillColor=inherit;gradientColor=inherit;strokeWidth=1;shadow=0;dashed=0;align=center;html=1;shape=mxgraph.mockup.forms.rrect;rSize=0;fontSize=17;fontColor=#666666;whiteSpace=wrap;" vertex="1" parent="4roU1Jn_dtgivTA0pJqq-74">
          <mxGeometry width="103.33333333333336" height="30" as="geometry" />
        </mxCell>
        <mxCell id="4roU1Jn_dtgivTA0pJqq-76" value="Nosotros" style="strokeColor=inherit;fillColor=inherit;gradientColor=inherit;strokeWidth=1;shadow=0;dashed=0;align=center;html=1;shape=mxgraph.mockup.forms.rrect;rSize=0;fontSize=17;fontColor=#666666;whiteSpace=wrap;" vertex="1" parent="4roU1Jn_dtgivTA0pJqq-74">
          <mxGeometry x="103.33333333333336" width="103.33333333333336" height="30" as="geometry" />
        </mxCell>
        <mxCell id="4roU1Jn_dtgivTA0pJqq-77" value="Contacto" style="strokeColor=inherit;fillColor=inherit;gradientColor=inherit;strokeWidth=1;shadow=0;dashed=0;align=center;html=1;shape=mxgraph.mockup.forms.rrect;rSize=0;fontSize=17;fontColor=#666666;whiteSpace=wrap;" vertex="1" parent="4roU1Jn_dtgivTA0pJqq-74">
          <mxGeometry x="206.6666666666667" width="103.33333333333336" height="30" as="geometry" />
        </mxCell>
        <mxCell id="4roU1Jn_dtgivTA0pJqq-78" value="Inicio" style="strokeColor=inherit;fillColor=inherit;gradientColor=inherit;strokeWidth=1;shadow=0;dashed=0;align=center;html=1;shape=mxgraph.mockup.forms.rrect;rSize=0;fontSize=17;fontColor=#666666;whiteSpace=wrap;" vertex="1" parent="4roU1Jn_dtgivTA0pJqq-74">
          <mxGeometry x="310.00000000000006" width="103.33333333333336" height="30" as="geometry" />
        </mxCell>
        <mxCell id="4roU1Jn_dtgivTA0pJqq-79" value="&lt;br&gt;&lt;span style=&quot;color: rgb(0, 0, 0); font-family: Helvetica; font-size: 12px; font-style: normal; font-variant-ligatures: normal; font-variant-caps: normal; font-weight: 400; letter-spacing: normal; orphans: 2; text-align: left; text-indent: 0px; text-transform: none; widows: 2; word-spacing: 0px; -webkit-text-stroke-width: 0px; background-color: rgb(251, 251, 251); text-decoration-thickness: initial; text-decoration-style: initial; text-decoration-color: initial; float: none; display: inline !important;&quot;&gt;Lorem ipsum dolor sit amet, consectetur adipisicing elit, sed do eiusmod tempor incididunt ut labore et dolore magna aliqua. Ut enim ad minim veniam, quis nostrud exercitation ullamco laboris nisi ut aliquip ex ea commodo consequat. Duis aute irure dolor in reprehenderit in voluptate velit esse cillum dolore eu fugiat nulla pariatur. Excepteur sint occaecat cupidatat non proident, sunt in culpa qui officia deserunt mollit anim id est laborum.&lt;/span&gt;&lt;br style=&quot;border-color: var(--border-color); color: rgb(0, 0, 0); font-family: Helvetica; font-size: 12px; font-style: normal; font-variant-ligatures: normal; font-variant-caps: normal; font-weight: 400; letter-spacing: normal; orphans: 2; text-align: left; text-indent: 0px; text-transform: none; widows: 2; word-spacing: 0px; -webkit-text-stroke-width: 0px; background-color: rgb(251, 251, 251); text-decoration-thickness: initial; text-decoration-style: initial; text-decoration-color: initial;&quot;&gt;&lt;span style=&quot;color: rgb(0, 0, 0); font-family: Helvetica; font-size: 12px; font-style: normal; font-variant-ligatures: normal; font-variant-caps: normal; font-weight: 400; letter-spacing: normal; orphans: 2; text-align: left; text-indent: 0px; text-transform: none; widows: 2; word-spacing: 0px; -webkit-text-stroke-width: 0px; background-color: rgb(251, 251, 251); text-decoration-thickness: initial; text-decoration-style: initial; text-decoration-color: initial; float: none; display: inline !important;&quot;&gt;Sed ut perspiciatis unde omnis iste natus error sit voluptatem accusantium doloremque laudantium, totam rem aperiam, eaque ipsa quae ab illo inventore veritatis et quasi architecto beatae vitae dicta sunt explicabo.&amp;nbsp;&lt;/span&gt;Lorem ipsum dolor sit amet, consectetur adipisicing elit, sed do eiusmod tempor incididunt ut labore et dolore magna aliqua. Ut enim ad minim veniam, quis nostrud exercitation ullamco laboris nisi ut aliquip ex ea commodo consequat. Duis aute irure dolor in reprehenderit in voluptate velit esse cillum dolore eu fugiat nulla pariatur. Excepteur sint occaecat cupidatat non proident, sunt in culpa qui officia deserunt mollit anim id est laborum.&lt;br style=&quot;border-color: var(--border-color);&quot;&gt;Sed ut perspiciatis unde omnis iste natus error sit voluptatem accusantium doloremque laudantium, totam rem aperiam, eaque ipsa quae ab illo inventore veritatis et quasi architecto beatae vitae dicta sunt explicabo.&amp;nbsp;&lt;br&gt;" style="text;spacingTop=-5;whiteSpace=wrap;html=1;align=left;fontSize=12;fontFamily=Helvetica;fillColor=none;strokeColor=none;rounded=0;shadow=1;labelBackgroundColor=none;" vertex="1" parent="4roU1Jn_dtgivTA0pJqq-66">
          <mxGeometry x="540" y="270" width="460" height="210" as="geometry" />
        </mxCell>
        <mxCell id="4roU1Jn_dtgivTA0pJqq-80" value="Fotos" style="html=1;shadow=0;dashed=0;strokeColor=none;strokeWidth=1;fillColor=#777777;fontColor=#555555;whiteSpace=wrap;align=center;verticalAlign=middle;fontStyle=0;fontSize=40;" vertex="1" parent="4roU1Jn_dtgivTA0pJqq-66">
          <mxGeometry x="40" y="270" width="385" height="210" as="geometry" />
        </mxCell>
        <mxCell id="4roU1Jn_dtgivTA0pJqq-81" value="" style="html=1;verticalLabelPosition=bottom;labelBackgroundColor=#ffffff;verticalAlign=top;shadow=0;dashed=0;strokeWidth=4;shape=mxgraph.ios7.misc.more;strokeColor=#a0a0a0;" vertex="1" parent="4roU1Jn_dtgivTA0pJqq-80">
          <mxGeometry x="1" y="0.5" width="7" height="14" relative="1" as="geometry">
            <mxPoint x="-50" y="-7" as="offset" />
          </mxGeometry>
        </mxCell>
        <mxCell id="4roU1Jn_dtgivTA0pJqq-82" value="" style="flipH=1;html=1;verticalLabelPosition=bottom;labelBackgroundColor=#ffffff;verticalAlign=top;shadow=0;dashed=0;strokeWidth=4;shape=mxgraph.ios7.misc.more;strokeColor=#a0a0a0;" vertex="1" parent="4roU1Jn_dtgivTA0pJqq-80">
          <mxGeometry y="0.5" width="7" height="14" relative="1" as="geometry">
            <mxPoint x="43" y="-7" as="offset" />
          </mxGeometry>
        </mxCell>
        <mxCell id="4roU1Jn_dtgivTA0pJqq-83" value="" style="html=1;shadow=0;strokeColor=none;fillColor=#ffffff;" vertex="1" parent="4roU1Jn_dtgivTA0pJqq-80">
          <mxGeometry x="0.5" y="1" width="30" height="4" relative="1" as="geometry">
            <mxPoint x="-50" y="-20" as="offset" />
          </mxGeometry>
        </mxCell>
        <mxCell id="4roU1Jn_dtgivTA0pJqq-84" value="" style="html=1;shadow=0;strokeColor=none;fillColor=#BBBBBB;" vertex="1" parent="4roU1Jn_dtgivTA0pJqq-80">
          <mxGeometry x="0.5" y="1" width="30" height="4" relative="1" as="geometry">
            <mxPoint x="-15" y="-20" as="offset" />
          </mxGeometry>
        </mxCell>
        <mxCell id="4roU1Jn_dtgivTA0pJqq-85" value="" style="html=1;shadow=0;strokeColor=none;fillColor=#BBBBBB;" vertex="1" parent="4roU1Jn_dtgivTA0pJqq-80">
          <mxGeometry x="0.5" y="1" width="30" height="4" relative="1" as="geometry">
            <mxPoint x="20" y="-20" as="offset" />
          </mxGeometry>
        </mxCell>
        <mxCell id="4roU1Jn_dtgivTA0pJqq-86" value="&lt;font style=&quot;font-size: 26px;&quot;&gt;Footer&lt;/font&gt;" style="text;html=1;strokeColor=none;fillColor=none;align=center;verticalAlign=middle;whiteSpace=wrap;rounded=0;" vertex="1" parent="4roU1Jn_dtgivTA0pJqq-66">
          <mxGeometry x="15" y="580" width="1040" height="30" as="geometry" />
        </mxCell>
        <mxCell id="4roU1Jn_dtgivTA0pJqq-87" value="" style="rounded=1;whiteSpace=wrap;html=1;strokeWidth=2;fillWeight=4;hachureGap=8;hachureAngle=45;fillColor=#1ba1e2;sketch=1;" vertex="1" parent="4roU1Jn_dtgivTA0pJqq-66">
          <mxGeometry x="10" y="640" width="1025" height="150" as="geometry" />
        </mxCell>
        <mxCell id="4roU1Jn_dtgivTA0pJqq-89" value="" style="verticalLabelPosition=bottom;verticalAlign=top;html=1;shadow=0;dashed=0;strokeWidth=1;shape=mxgraph.android.phone2;strokeColor=#c0c0c0;" vertex="1" parent="1">
          <mxGeometry x="1350" y="2200" width="720" height="870" as="geometry" />
        </mxCell>
        <mxCell id="4roU1Jn_dtgivTA0pJqq-90" value="" style="verticalLabelPosition=bottom;verticalAlign=top;html=1;shadow=0;dashed=0;strokeWidth=1;shape=mxgraph.android.phone2;strokeColor=#c0c0c0;" vertex="1" parent="1">
          <mxGeometry x="1320" y="1140" width="720" height="900" as="geometry" />
        </mxCell>
        <mxCell id="4roU1Jn_dtgivTA0pJqq-91" value="LOGO" style="rounded=0;whiteSpace=wrap;html=1;" vertex="1" parent="1">
          <mxGeometry x="1610" y="1220" width="140" height="110" as="geometry" />
        </mxCell>
        <mxCell id="4roU1Jn_dtgivTA0pJqq-92" value="Inicio&lt;br style=&quot;font-size: 27px;&quot;&gt;Contacto&lt;br&gt;Nosotros&lt;br&gt;Servicios&lt;br&gt;" style="text;html=1;align=center;verticalAlign=middle;resizable=0;points=[];autosize=1;strokeColor=none;fillColor=none;fontSize=27;" vertex="1" parent="1">
          <mxGeometry x="1620" y="1330" width="130" height="140" as="geometry" />
        </mxCell>
        <mxCell id="4roU1Jn_dtgivTA0pJqq-93" value="&lt;font style=&quot;font-size: 50px;&quot;&gt;fotos&lt;/font&gt;" style="whiteSpace=wrap;html=1;aspect=fixed;" vertex="1" parent="1">
          <mxGeometry x="1390" y="1480" width="110" height="110" as="geometry" />
        </mxCell>
        <mxCell id="4roU1Jn_dtgivTA0pJqq-95" value="amco laboris nisi ut aliquip ex ea commodo &lt;br&gt;consequat. Duis aute irure dolor in reprehenderit in voluptate &lt;br&gt;velit esse &lt;br&gt;cillum dolore eu fugiat nulla pariatur. Excepteur sint occaecat c&lt;br&gt;" style="text;html=1;align=center;verticalAlign=middle;resizable=0;points=[];autosize=1;strokeColor=none;fillColor=none;" vertex="1" parent="1">
          <mxGeometry x="1590" y="1500" width="360" height="70" as="geometry" />
        </mxCell>
        <mxCell id="4roU1Jn_dtgivTA0pJqq-96" value="&lt;font style=&quot;font-size: 50px;&quot;&gt;fotos&lt;/font&gt;" style="whiteSpace=wrap;html=1;aspect=fixed;" vertex="1" parent="1">
          <mxGeometry x="1390" y="1600" width="110" height="110" as="geometry" />
        </mxCell>
        <mxCell id="4roU1Jn_dtgivTA0pJqq-97" value="amco laboris nisi ut aliquip ex ea commodo &lt;br&gt;consequat. Duis aute irure dolor in reprehenderit in voluptate &lt;br&gt;velit esse &lt;br&gt;cillum dolore eu fugiat nulla pariatur. Excepteur sint occaecat c&lt;br&gt;" style="text;html=1;align=center;verticalAlign=middle;resizable=0;points=[];autosize=1;strokeColor=none;fillColor=none;" vertex="1" parent="1">
          <mxGeometry x="1595" y="1620" width="360" height="70" as="geometry" />
        </mxCell>
        <mxCell id="4roU1Jn_dtgivTA0pJqq-98" value="&lt;font style=&quot;font-size: 26px;&quot;&gt;Footer&lt;/font&gt;" style="text;html=1;strokeColor=none;fillColor=none;align=center;verticalAlign=middle;whiteSpace=wrap;rounded=0;" vertex="1" parent="1">
          <mxGeometry x="1160" y="1730" width="1040" height="30" as="geometry" />
        </mxCell>
        <mxCell id="4roU1Jn_dtgivTA0pJqq-99" value="" style="strokeWidth=1;shadow=0;dashed=0;align=center;html=1;shape=mxgraph.mockup.containers.browserWindow;rSize=0;strokeColor=#666666;mainText=,;recursiveResize=0;rounded=0;labelBackgroundColor=none;fontFamily=Verdana;fontSize=12" vertex="1" parent="1">
          <mxGeometry x="90" y="2230" width="1060" height="850" as="geometry" />
        </mxCell>
        <mxCell id="4roU1Jn_dtgivTA0pJqq-100" value="Page 1" style="strokeWidth=1;shadow=0;dashed=0;align=center;html=1;shape=mxgraph.mockup.containers.anchor;fontSize=17;fontColor=#666666;align=left;" vertex="1" parent="4roU1Jn_dtgivTA0pJqq-99">
          <mxGeometry x="60" y="12" width="110" height="26" as="geometry" />
        </mxCell>
        <mxCell id="4roU1Jn_dtgivTA0pJqq-101" value="https://www.default.com" style="strokeWidth=1;shadow=0;dashed=0;align=center;html=1;shape=mxgraph.mockup.containers.anchor;rSize=0;fontSize=17;fontColor=#666666;align=left;" vertex="1" parent="4roU1Jn_dtgivTA0pJqq-99">
          <mxGeometry x="130" y="60" width="250" height="26" as="geometry" />
        </mxCell>
        <mxCell id="4roU1Jn_dtgivTA0pJqq-102" value="LOGO" style="text;html=1;points=[];align=left;verticalAlign=top;spacingTop=-4;fontSize=30;fontFamily=Verdana" vertex="1" parent="4roU1Jn_dtgivTA0pJqq-99">
          <mxGeometry x="30" y="140" width="340" height="50" as="geometry" />
        </mxCell>
        <mxCell id="4roU1Jn_dtgivTA0pJqq-103" value="" style="verticalLabelPosition=bottom;shadow=0;dashed=0;align=center;html=1;verticalAlign=top;strokeWidth=1;shape=mxgraph.mockup.markup.line;strokeColor=#999999;rounded=0;labelBackgroundColor=none;fillColor=#ffffff;fontFamily=Verdana;fontSize=12;fontColor=#000000;" vertex="1" parent="4roU1Jn_dtgivTA0pJqq-99">
          <mxGeometry x="10" y="215" width="1050" height="20" as="geometry" />
        </mxCell>
        <mxCell id="4roU1Jn_dtgivTA0pJqq-105" value="" style="verticalLabelPosition=bottom;shadow=0;dashed=0;align=center;html=1;verticalAlign=top;strokeWidth=1;shape=mxgraph.mockup.markup.line;strokeColor=#999999;rounded=0;labelBackgroundColor=none;fillColor=#ffffff;fontFamily=Verdana;fontSize=12;fontColor=#000000;" vertex="1" parent="4roU1Jn_dtgivTA0pJqq-99">
          <mxGeometry y="420" width="1050" height="130" as="geometry" />
        </mxCell>
        <mxCell id="4roU1Jn_dtgivTA0pJqq-106" value="" style="strokeWidth=1;shadow=0;dashed=0;align=center;html=1;shape=mxgraph.mockup.forms.rrect;rSize=0;strokeColor=#999999;" vertex="1" parent="4roU1Jn_dtgivTA0pJqq-99">
          <mxGeometry x="330" y="150" width="620" height="30" as="geometry" />
        </mxCell>
        <mxCell id="4roU1Jn_dtgivTA0pJqq-107" value="Servicios" style="strokeColor=inherit;fillColor=inherit;gradientColor=inherit;strokeWidth=1;shadow=0;dashed=0;align=center;html=1;shape=mxgraph.mockup.forms.rrect;rSize=0;fontSize=17;fontColor=#666666;whiteSpace=wrap;" vertex="1" parent="4roU1Jn_dtgivTA0pJqq-106">
          <mxGeometry width="103.33333333333336" height="30" as="geometry" />
        </mxCell>
        <mxCell id="4roU1Jn_dtgivTA0pJqq-108" value="Nosotros" style="strokeColor=inherit;fillColor=inherit;gradientColor=inherit;strokeWidth=1;shadow=0;dashed=0;align=center;html=1;shape=mxgraph.mockup.forms.rrect;rSize=0;fontSize=17;fontColor=#666666;whiteSpace=wrap;" vertex="1" parent="4roU1Jn_dtgivTA0pJqq-106">
          <mxGeometry x="103.33333333333336" width="103.33333333333336" height="30" as="geometry" />
        </mxCell>
        <mxCell id="4roU1Jn_dtgivTA0pJqq-109" value="Contacto" style="strokeColor=inherit;fillColor=inherit;gradientColor=inherit;strokeWidth=1;shadow=0;dashed=0;align=center;html=1;shape=mxgraph.mockup.forms.rrect;rSize=0;fontSize=17;fontColor=#666666;whiteSpace=wrap;" vertex="1" parent="4roU1Jn_dtgivTA0pJqq-106">
          <mxGeometry x="206.6666666666667" width="103.33333333333336" height="30" as="geometry" />
        </mxCell>
        <mxCell id="4roU1Jn_dtgivTA0pJqq-110" value="Inicio" style="strokeColor=inherit;fillColor=inherit;gradientColor=inherit;strokeWidth=1;shadow=0;dashed=0;align=center;html=1;shape=mxgraph.mockup.forms.rrect;rSize=0;fontSize=17;fontColor=#666666;whiteSpace=wrap;" vertex="1" parent="4roU1Jn_dtgivTA0pJqq-106">
          <mxGeometry x="310.00000000000006" width="103.33333333333336" height="30" as="geometry" />
        </mxCell>
        <mxCell id="4roU1Jn_dtgivTA0pJqq-118" value="&lt;font style=&quot;font-size: 26px;&quot;&gt;Footer&lt;/font&gt;" style="text;html=1;strokeColor=none;fillColor=none;align=center;verticalAlign=middle;whiteSpace=wrap;rounded=0;" vertex="1" parent="4roU1Jn_dtgivTA0pJqq-99">
          <mxGeometry x="5" y="510" width="1040" height="30" as="geometry" />
        </mxCell>
        <mxCell id="4roU1Jn_dtgivTA0pJqq-129" value="Map" style="html=1;whiteSpace=wrap;strokeColor=none;fillColor=#0079D6;labelPosition=center;verticalLabelPosition=middle;verticalAlign=top;align=center;fontSize=12;outlineConnect=0;spacingTop=-6;fontColor=#FFFFFF;sketch=0;shape=mxgraph.sitemap.map;" vertex="1" parent="4roU1Jn_dtgivTA0pJqq-99">
          <mxGeometry x="550" y="250" width="310" height="150" as="geometry" />
        </mxCell>
        <mxCell id="4roU1Jn_dtgivTA0pJqq-130" value="&lt;br&gt;&lt;span style=&quot;color: rgb(0, 0, 0); font-family: Helvetica; font-size: 12px; font-style: normal; font-variant-ligatures: normal; font-variant-caps: normal; font-weight: 400; letter-spacing: normal; orphans: 2; text-align: center; text-indent: 0px; text-transform: none; widows: 2; word-spacing: 0px; -webkit-text-stroke-width: 0px; background-color: rgb(251, 251, 251); text-decoration-thickness: initial; text-decoration-style: initial; text-decoration-color: initial; float: none; display: inline !important;&quot;&gt;architecto beatae vitae dicta sunt explicabo.&amp;nbsp;&lt;/span&gt;&lt;span style=&quot;border-color: var(--border-color); color: rgb(0, 0, 0); font-family: Helvetica; font-size: 12px; font-style: normal; font-variant-ligatures: normal; font-variant-caps: normal; font-weight: 400; letter-spacing: normal; orphans: 2; text-indent: 0px; text-transform: none; widows: 2; word-spacing: 0px; -webkit-text-stroke-width: 0px; background-color: rgb(251, 251, 251); text-decoration-thickness: initial; text-decoration-style: initial; text-decoration-color: initial; text-align: left;&quot;&gt;Lorem ipsum dolor sit amet, consectetur adipisicing&lt;/span&gt;&lt;br&gt;architecto beatae vitae dicta sunt explicabo.&amp;nbsp;Lorem ipsum dolor sit amet, consectetur adipisicing" style="text;html=1;strokeColor=none;fillColor=none;align=center;verticalAlign=middle;whiteSpace=wrap;rounded=0;" vertex="1" parent="4roU1Jn_dtgivTA0pJqq-99">
          <mxGeometry x="50" y="270" width="190" height="80" as="geometry" />
        </mxCell>
        <mxCell id="4roU1Jn_dtgivTA0pJqq-132" value="" style="rounded=1;whiteSpace=wrap;html=1;" vertex="1" parent="4roU1Jn_dtgivTA0pJqq-99">
          <mxGeometry y="640" width="1060" height="200" as="geometry" />
        </mxCell>
        <mxCell id="4roU1Jn_dtgivTA0pJqq-133" value="" style="rounded=0;whiteSpace=wrap;html=1;" vertex="1" parent="4roU1Jn_dtgivTA0pJqq-99">
          <mxGeometry x="20" y="680" width="240" height="20" as="geometry" />
        </mxCell>
        <mxCell id="4roU1Jn_dtgivTA0pJqq-134" value="" style="rounded=0;whiteSpace=wrap;html=1;" vertex="1" parent="4roU1Jn_dtgivTA0pJqq-99">
          <mxGeometry x="20" y="710" width="240" height="20" as="geometry" />
        </mxCell>
        <mxCell id="4roU1Jn_dtgivTA0pJqq-135" value="" style="rounded=0;whiteSpace=wrap;html=1;" vertex="1" parent="4roU1Jn_dtgivTA0pJqq-99">
          <mxGeometry x="20" y="745" width="240" height="20" as="geometry" />
        </mxCell>
        <mxCell id="4roU1Jn_dtgivTA0pJqq-136" value="" style="rounded=0;whiteSpace=wrap;html=1;" vertex="1" parent="4roU1Jn_dtgivTA0pJqq-99">
          <mxGeometry x="20" y="790" width="240" height="20" as="geometry" />
        </mxCell>
        <mxCell id="4roU1Jn_dtgivTA0pJqq-137" value="" style="whiteSpace=wrap;html=1;aspect=fixed;" vertex="1" parent="4roU1Jn_dtgivTA0pJqq-99">
          <mxGeometry x="420" y="660" width="160" height="160" as="geometry" />
        </mxCell>
        <mxCell id="4roU1Jn_dtgivTA0pJqq-158" value="" style="whiteSpace=wrap;html=1;aspect=fixed;" vertex="1" parent="4roU1Jn_dtgivTA0pJqq-99">
          <mxGeometry x="770" y="660" width="160" height="160" as="geometry" />
        </mxCell>
        <mxCell id="4roU1Jn_dtgivTA0pJqq-121" value="" style="rounded=1;whiteSpace=wrap;html=1;" vertex="1" parent="1">
          <mxGeometry x="1390" y="1790" width="620" height="72" as="geometry" />
        </mxCell>
        <mxCell id="4roU1Jn_dtgivTA0pJqq-122" value="" style="whiteSpace=wrap;html=1;aspect=fixed;" vertex="1" parent="1">
          <mxGeometry x="1438" y="1795" width="62" height="62" as="geometry" />
        </mxCell>
        <mxCell id="4roU1Jn_dtgivTA0pJqq-123" value="" style="whiteSpace=wrap;html=1;aspect=fixed;" vertex="1" parent="1">
          <mxGeometry x="1568" y="1795" width="62" height="62" as="geometry" />
        </mxCell>
        <mxCell id="4roU1Jn_dtgivTA0pJqq-124" value="" style="whiteSpace=wrap;html=1;aspect=fixed;" vertex="1" parent="1">
          <mxGeometry x="1723" y="1795" width="62" height="62" as="geometry" />
        </mxCell>
        <mxCell id="4roU1Jn_dtgivTA0pJqq-125" value="" style="whiteSpace=wrap;html=1;aspect=fixed;" vertex="1" parent="1">
          <mxGeometry x="1880" y="1795" width="62" height="62" as="geometry" />
        </mxCell>
        <mxCell id="4roU1Jn_dtgivTA0pJqq-127" value="&lt;font style=&quot;font-size: 60px;&quot;&gt;Servicios // Nosotros&lt;/font&gt;" style="text;html=1;align=center;verticalAlign=middle;resizable=0;points=[];autosize=1;strokeColor=none;fillColor=none;" vertex="1" parent="1">
          <mxGeometry x="220" y="1040" width="570" height="90" as="geometry" />
        </mxCell>
        <mxCell id="4roU1Jn_dtgivTA0pJqq-128" value="&lt;font style=&quot;font-size: 60px;&quot;&gt;Servicios // Nosotros&lt;/font&gt;" style="text;html=1;align=center;verticalAlign=middle;resizable=0;points=[];autosize=1;strokeColor=none;fillColor=none;" vertex="1" parent="1">
          <mxGeometry x="1425" y="1040" width="570" height="90" as="geometry" />
        </mxCell>
        <mxCell id="4roU1Jn_dtgivTA0pJqq-159" value="&lt;font style=&quot;font-size: 60px;&quot;&gt;Contacto&lt;/font&gt;" style="text;html=1;strokeColor=none;fillColor=none;align=center;verticalAlign=middle;whiteSpace=wrap;rounded=0;" vertex="1" parent="1">
          <mxGeometry x="590" y="2125" width="60" height="30" as="geometry" />
        </mxCell>
        <mxCell id="4roU1Jn_dtgivTA0pJqq-160" value="&lt;font style=&quot;font-size: 60px;&quot;&gt;Contacto&lt;/font&gt;" style="text;html=1;strokeColor=none;fillColor=none;align=center;verticalAlign=middle;whiteSpace=wrap;rounded=0;" vertex="1" parent="1">
          <mxGeometry x="1160" y="2125" width="1200" height="35" as="geometry" />
        </mxCell>
        <mxCell id="4roU1Jn_dtgivTA0pJqq-161" value="LOGO" style="rounded=0;whiteSpace=wrap;html=1;" vertex="1" parent="1">
          <mxGeometry x="1635" y="2280" width="140" height="110" as="geometry" />
        </mxCell>
        <mxCell id="4roU1Jn_dtgivTA0pJqq-162" value="Inicio&lt;br style=&quot;font-size: 27px;&quot;&gt;Contacto&lt;br&gt;Nosotros&lt;br&gt;Servicios&lt;br&gt;" style="text;html=1;align=center;verticalAlign=middle;resizable=0;points=[];autosize=1;strokeColor=none;fillColor=none;fontSize=27;" vertex="1" parent="1">
          <mxGeometry x="1640" y="2410" width="130" height="140" as="geometry" />
        </mxCell>
        <mxCell id="4roU1Jn_dtgivTA0pJqq-163" value="Map" style="html=1;whiteSpace=wrap;strokeColor=none;fillColor=#0079D6;labelPosition=center;verticalLabelPosition=middle;verticalAlign=top;align=center;fontSize=12;outlineConnect=0;spacingTop=-6;fontColor=#FFFFFF;sketch=0;shape=mxgraph.sitemap.map;" vertex="1" parent="1">
          <mxGeometry x="1545" y="2580" width="310" height="150" as="geometry" />
        </mxCell>
        <mxCell id="4roU1Jn_dtgivTA0pJqq-164" value="fslfslarchitecto beatae vitae dicta sunt explicabo.&amp;nbsp;&lt;span style=&quot;border-color: var(--border-color); text-align: left;&quot;&gt;Lorem ipsum dolor sit amet, consectetur adipisicing&lt;/span&gt;" style="text;html=1;align=center;verticalAlign=middle;resizable=0;points=[];autosize=1;strokeColor=none;fillColor=none;" vertex="1" parent="1">
          <mxGeometry x="1410" y="2748" width="560" height="30" as="geometry" />
        </mxCell>
        <mxCell id="4roU1Jn_dtgivTA0pJqq-165" value="&lt;font style=&quot;font-size: 30px;&quot;&gt;Footer&lt;/font&gt;" style="text;html=1;align=center;verticalAlign=middle;resizable=0;points=[];autosize=1;strokeColor=none;fillColor=none;" vertex="1" parent="1">
          <mxGeometry x="1625" y="2778" width="110" height="50" as="geometry" />
        </mxCell>
        <mxCell id="4roU1Jn_dtgivTA0pJqq-166" value="" style="rounded=1;whiteSpace=wrap;html=1;" vertex="1" parent="1">
          <mxGeometry x="1385" y="2840" width="655" height="140" as="geometry" />
        </mxCell>
        <mxCell id="4roU1Jn_dtgivTA0pJqq-167" value="" style="rounded=0;whiteSpace=wrap;html=1;" vertex="1" parent="1">
          <mxGeometry x="1395" y="2860" width="240" height="20" as="geometry" />
        </mxCell>
        <mxCell id="4roU1Jn_dtgivTA0pJqq-169" value="" style="rounded=0;whiteSpace=wrap;html=1;" vertex="1" parent="1">
          <mxGeometry x="1395" y="2890" width="240" height="20" as="geometry" />
        </mxCell>
        <mxCell id="4roU1Jn_dtgivTA0pJqq-170" value="" style="rounded=0;whiteSpace=wrap;html=1;" vertex="1" parent="1">
          <mxGeometry x="1395" y="2930" width="240" height="20" as="geometry" />
        </mxCell>
        <mxCell id="4roU1Jn_dtgivTA0pJqq-171" value="" style="whiteSpace=wrap;html=1;aspect=fixed;" vertex="1" parent="1">
          <mxGeometry x="1700" y="2850" width="120" height="120" as="geometry" />
        </mxCell>
        <mxCell id="4roU1Jn_dtgivTA0pJqq-172" value="" style="whiteSpace=wrap;html=1;aspect=fixed;" vertex="1" parent="1">
          <mxGeometry x="1875" y="2850" width="120" height="120" as="geometry" />
        </mxCell>
      </root>
    </mxGraphModel>
  </diagram>
</mxfile>
